<svg xmlns="http://www.w3.org/2000/svg" width="34" height="34" fill="none" viewBox="0 0 34 34">
    <circle cx="17" cy="17" r="17" fill="url(#a)"/>
    <path fill="#fff" d="M12.578 24H9.265V13.31h3.318V24h-.005zm-1.657-12.15A1.924 1.924 0 0 1 9 9.925C9 8.865 9.858 8 10.921 8c1.058 0 1.922.865 1.922 1.925a1.92 1.92 0 0 1-1.922 1.925zM25 24h-3.314v-5.2c0-1.24-.025-2.835-1.722-2.835-1.726 0-1.99 1.35-1.99 2.745V24h-3.315V13.31h3.18v1.46h.044c.445-.84 1.527-1.725 3.14-1.725 3.353 0 3.977 2.215 3.977 5.095V24z"/>
    <defs>
        <linearGradient id="a" x1="-3.181" x2="31.85" y1="-13.6" y2="27.888" gradientUnits="userSpaceOnUse">
            <stop stop-color="#BE1E2D"/>
            <stop offset="1" stop-color="#98252B"/>
        </linearGradient>
    </defs>
</svg>
