<svg xmlns="http://www.w3.org/2000/svg" width="34" height="34" fill="none" viewBox="0 0 34 34">
    <circle cx="17" cy="17" r="17" fill="url(#a)"/>
    <path fill="#fff" d="M17.002 12.385A4.607 4.607 0 0 0 12.388 17a4.607 4.607 0 0 0 4.614 4.615A4.607 4.607 0 0 0 21.616 17a4.607 4.607 0 0 0-4.614-4.615zm0 7.615c-1.65 0-3-1.345-3-3s1.346-3 3-3 3 1.345 3 3-1.35 3-3 3zm5.879-7.804c0 .599-.482 1.077-1.076 1.077a1.076 1.076 0 1 1 1.076-1.076zm3.056 1.093c-.069-1.442-.398-2.72-1.454-3.772-1.052-1.052-2.329-1.381-3.77-1.454-1.486-.084-5.94-.084-7.425 0-1.438.069-2.715.398-3.771 1.45-1.056 1.053-1.381 2.33-1.454 3.772-.084 1.486-.084 5.94 0 7.426.069 1.442.398 2.72 1.454 3.772 1.056 1.052 2.329 1.381 3.77 1.454 1.486.084 5.94.084 7.425 0 1.442-.069 2.719-.398 3.771-1.454 1.052-1.053 1.381-2.33 1.454-3.772.084-1.486.084-5.936 0-7.422zm-1.92 9.017a3.037 3.037 0 0 1-1.71 1.71c-1.185.47-3.996.362-5.305.362-1.31 0-4.124.105-5.305-.361a3.037 3.037 0 0 1-1.71-1.711c-.47-1.185-.362-3.997-.362-5.306 0-1.31-.104-4.125.362-5.306a3.037 3.037 0 0 1 1.71-1.71c1.185-.47 3.996-.362 5.305-.362 1.31 0 4.124-.105 5.305.361.787.313 1.393.92 1.71 1.711.47 1.185.362 3.997.362 5.306 0 1.31.108 4.125-.362 5.306z"/>
    <defs>
        <linearGradient id="a" x1="-3.181" x2="31.85" y1="-13.6" y2="27.888" gradientUnits="userSpaceOnUse">
            <stop stop-color="#BE1E2D"/>
            <stop offset="1" stop-color="#98252B"/>
        </linearGradient>
    </defs>
</svg>
