<svg xmlns="http://www.w3.org/2000/svg" width="44" height="43" fill="none" viewBox="0 0 44 43">
    <path fill="#B41921" d="M41.049 10.957a21.904 21.904 0 0 0-8.006-8.006C29.672.983 25.992 0 22 0c-3.991 0-7.673.984-11.043 2.95a21.902 21.902 0 0 0-8.006 8.007C.984 14.327 0 18.008 0 21.999c0 4.794 1.399 9.105 4.197 12.933 2.797 3.83 6.411 6.48 10.842 7.95.515.095.897.028 1.145-.2a1.12 1.12 0 0 0 .373-.86l-.015-1.547c-.01-.974-.014-1.823-.014-2.549l-.66.114c-.42.077-.95.11-1.589.1a12.112 12.112 0 0 1-1.99-.2 4.448 4.448 0 0 1-1.92-.859 3.634 3.634 0 0 1-1.26-1.761l-.287-.66c-.19-.438-.491-.926-.902-1.46-.41-.535-.826-.897-1.246-1.088l-.2-.144a2.1 2.1 0 0 1-.373-.344 1.57 1.57 0 0 1-.257-.401c-.058-.134-.01-.244.143-.33.153-.086.43-.128.83-.128l.573.086c.382.076.855.305 1.418.687a4.623 4.623 0 0 1 1.39 1.49c.439.782.968 1.379 1.59 1.79.62.41 1.245.615 1.875.615.63 0 1.175-.047 1.633-.142.458-.096.888-.24 1.29-.43.171-1.28.639-2.264 1.402-2.951a19.625 19.625 0 0 1-2.936-.516c-.868-.23-1.766-.601-2.692-1.117-.926-.516-1.695-1.156-2.306-1.92-.611-.763-1.113-1.766-1.504-3.007-.391-1.242-.587-2.674-.587-4.297 0-2.311.755-4.278 2.263-5.901-.706-1.738-.64-3.686.2-5.844.554-.172 1.376-.043 2.464.387 1.089.43 1.886.798 2.392 1.103.506.305.912.564 1.218.773a20.339 20.339 0 0 1 5.5-.744c1.89 0 3.724.248 5.5.744l1.089-.687c.744-.458 1.623-.878 2.635-1.26 1.012-.382 1.786-.487 2.32-.315.86 2.158.936 4.105.23 5.843 1.508 1.623 2.263 3.59 2.263 5.901 0 1.623-.197 3.06-.588 4.311-.39 1.251-.897 2.253-1.517 3.008a8.008 8.008 0 0 1-2.32 1.905c-.927.515-1.825.888-2.694 1.117-.869.23-1.847.402-2.936.516.993.86 1.49 2.215 1.49 4.068v6.043c0 .344.119.63.358.86.238.228.615.295 1.131.2 4.43-1.47 8.045-4.12 10.843-7.95C42.6 31.104 44 26.793 44 21.999c-.001-3.99-.985-7.67-2.951-11.041z"/>
</svg>
