<svg xmlns="http://www.w3.org/2000/svg" width="34" height="34" fill="none" viewBox="0 0 34 34">
    <circle cx="17" cy="17" r="17" fill="url(#a)"/>
    <path fill="#fff" d="M24.15 12.988c.011.175.011.35.011.524C24.161 18.85 20.45 25 13.665 25A9.783 9.783 0 0 1 8 23.187c.297.038.582.05.89.05 1.726 0 3.313-.637 4.58-1.724-1.621-.038-2.98-1.2-3.448-2.8.228.037.456.062.696.062.332 0 .663-.05.971-.137-1.69-.376-2.958-2-2.958-3.963v-.05c.491.3 1.062.488 1.667.512-.993-.725-1.644-1.962-1.644-3.362a4.3 4.3 0 0 1 .502-2.038c1.816 2.45 4.546 4.05 7.607 4.226a4.972 4.972 0 0 1-.091-.925C16.772 10.811 18.416 9 20.46 9c1.062 0 2.021.488 2.695 1.275a6.895 6.895 0 0 0 2.341-.975 3.982 3.982 0 0 1-1.621 2.225A6.9 6.9 0 0 0 26 10.9a8.38 8.38 0 0 1-1.85 2.088z"/>
    <defs>
        <linearGradient id="a" x1="-3.181" x2="31.85" y1="-13.6" y2="27.888" gradientUnits="userSpaceOnUse">
            <stop stop-color="#BE1E2D"/>
            <stop offset="1" stop-color="#98252B"/>
        </linearGradient>
    </defs>
</svg>
